<svg width="73" height="18" viewBox="0 0 73 18" fill="none" xmlns="http://www.w3.org/2000/svg">
<path d="M0.902344 0.608398H8.56152V4.08887H5.4248V7.38672H8.21777V10.6953H5.4248V18H0.902344V0.608398ZM14.1904 0.608398V18H9.66797V0.608398H14.1904ZM26.748 0.608398L24.4492 18H17.585L14.9746 0.608398H19.7441C20.2956 5.39941 20.6895 9.44922 20.9258 12.7578C21.1621 9.41341 21.4092 6.44141 21.667 3.8418L21.9785 0.608398H26.748ZM27.5215 0.608398H35.0625V4.08887H32.0439V7.38672H34.8691V10.6953H32.0439V14.5195H35.3633V18H27.5215V0.608398ZM46.7715 0.608398V18H42.8076L40.4551 10.0938V18H36.6738V0.608398H40.4551L42.9902 8.43945V0.608398H46.7715ZM53.1201 0.608398V18H48.5977V0.608398H53.1201ZM64.0449 0.608398V4.08887H61.3594V18H56.8369V4.08887H54.1621V0.608398H64.0449ZM65.0762 0.608398H72.6172V4.08887H69.5986V7.38672H72.4238V10.6953H69.5986V14.5195H72.918V18H65.0762V0.608398Z" fill="white"/>
</svg>
